<svg width="9" height="5" viewBox="0 0 9 5" fill="none" xmlns="http://www.w3.org/2000/svg">
<path d="M8.8019 0.191201C8.67501 0.0687756 8.50294 9.1022e-07 8.32353 8.94535e-07C8.14412 8.7885e-07 7.97205 0.0687756 7.84516 0.191201L4.49592 3.42372L1.14667 0.1912C1.01906 0.0722444 0.848143 0.00642228 0.670737 0.00791048C0.49333 0.00939819 0.323626 0.078077 0.198176 0.199155C0.0727267 0.320232 0.00156824 0.484021 2.6129e-05 0.655245C-0.00151502 0.826468 0.0666841 0.991425 0.189935 1.11459L4.01755 4.8088C4.14443 4.93123 4.3165 5 4.49592 5C4.67533 5 4.8474 4.93123 4.97428 4.8088L8.8019 1.11459C8.92874 0.992128 9 0.826056 9 0.652895C9 0.479734 8.92874 0.313663 8.8019 0.191201Z" fill="black"/>
</svg>
